<mxfile host="app.diagrams.net" modified="2021-12-31T07:44:10.776Z" agent="5.0 (Windows NT 6.1; Win64; x64) AppleWebKit/537.36 (KHTML, like Gecko) Chrome/92.0.4515.131 Safari/537.36" etag="imhetyB1O1WCD4luPqcI" version="16.0.0" type="github">
  <diagram id="Y9YmNgavs_kz7u_fwx4b" name="第 1 页">
    <mxGraphModel dx="2249" dy="703" grid="1" gridSize="10" guides="1" tooltips="1" connect="1" arrows="1" fold="1" page="1" pageScale="1" pageWidth="827" pageHeight="1169" math="0" shadow="0">
      <root>
        <mxCell id="0" />
        <mxCell id="1" parent="0" />
        <mxCell id="E7psHjqIGk0uWjUXyS8v-7" value="" style="edgeStyle=orthogonalEdgeStyle;rounded=0;orthogonalLoop=1;jettySize=auto;html=1;fontFamily=Comic Sans MS;fontSize=14;" parent="1" source="E7psHjqIGk0uWjUXyS8v-4" edge="1">
          <mxGeometry relative="1" as="geometry">
            <mxPoint x="855.5" y="440" as="targetPoint" />
          </mxGeometry>
        </mxCell>
        <mxCell id="E7psHjqIGk0uWjUXyS8v-4" value="研发调用更新接口" style="rounded=1;whiteSpace=wrap;html=1;fillColor=#fff2cc;strokeColor=#d6b656;fontFamily=Comic Sans MS;fontSize=14;" parent="1" vertex="1">
          <mxGeometry x="795.5" y="240" width="120" height="60" as="geometry" />
        </mxCell>
        <mxCell id="E7psHjqIGk0uWjUXyS8v-9" value="" style="edgeStyle=orthogonalEdgeStyle;rounded=0;orthogonalLoop=1;jettySize=auto;html=1;fontFamily=Comic Sans MS;fontSize=14;" parent="1" target="E7psHjqIGk0uWjUXyS8v-8" edge="1">
          <mxGeometry relative="1" as="geometry">
            <mxPoint x="733" y="480" as="sourcePoint" />
          </mxGeometry>
        </mxCell>
        <mxCell id="E7psHjqIGk0uWjUXyS8v-14" value="" style="edgeStyle=orthogonalEdgeStyle;rounded=0;orthogonalLoop=1;jettySize=auto;html=1;fontFamily=Comic Sans MS;fontSize=14;" parent="1" source="E7psHjqIGk0uWjUXyS8v-8" target="E7psHjqIGk0uWjUXyS8v-13" edge="1">
          <mxGeometry relative="1" as="geometry" />
        </mxCell>
        <mxCell id="E7psHjqIGk0uWjUXyS8v-8" value="下载 m.json" style="whiteSpace=wrap;html=1;fillColor=#fff2cc;strokeColor=#d6b656;rounded=1;fontFamily=Comic Sans MS;fontSize=14;" parent="1" vertex="1">
          <mxGeometry x="478" y="580" width="170" height="60" as="geometry" />
        </mxCell>
        <mxCell id="E7psHjqIGk0uWjUXyS8v-10" value="Yes，代表是原生更新" style="text;html=1;align=center;verticalAlign=middle;resizable=0;points=[];autosize=1;strokeColor=none;fillColor=none;fontFamily=Comic Sans MS;fontSize=14;" parent="1" vertex="1">
          <mxGeometry x="568" y="450" width="150" height="20" as="geometry" />
        </mxCell>
        <mxCell id="E7psHjqIGk0uWjUXyS8v-11" value="相关术语&lt;br style=&quot;font-size: 14px&quot;&gt;&lt;div style=&quot;font-size: 14px&quot;&gt;&lt;span style=&quot;font-size: 14px&quot;&gt;1、assets目录：研发出包时，放在 preject 中的资源，会跟着打包&lt;br style=&quot;font-size: 14px&quot;&gt;2、preloadpath：在做热更时，游戏资源会下载到该目录。白鹭设置热更的时候，应该指向该目录&lt;/span&gt;&lt;/div&gt;&lt;div style=&quot;font-size: 14px&quot;&gt;&lt;span style=&quot;font-size: 14px&quot;&gt;3、原生更新：需要 SDK 维护 m.json 中的内容。不存在跨版本更新的情况&lt;/span&gt;&lt;/div&gt;&lt;div style=&quot;font-size: 14px&quot;&gt;&lt;span style=&quot;font-size: 14px&quot;&gt;4、非原生更新：不需要 SDK 维护 m.json 中的内容。存在跨版本更新的情况&lt;/span&gt;&lt;/div&gt;" style="text;html=1;strokeColor=none;fillColor=none;align=left;verticalAlign=middle;whiteSpace=wrap;rounded=0;fontFamily=Comic Sans MS;fontSize=14;" parent="1" vertex="1">
          <mxGeometry x="30" y="30" width="1120" height="140" as="geometry" />
        </mxCell>
        <mxCell id="E7psHjqIGk0uWjUXyS8v-20" value="" style="edgeStyle=orthogonalEdgeStyle;rounded=0;orthogonalLoop=1;jettySize=auto;html=1;fontFamily=Comic Sans MS;fontSize=14;entryX=0.531;entryY=0;entryDx=0;entryDy=0;entryPerimeter=0;" parent="1" source="E7psHjqIGk0uWjUXyS8v-12" target="E7psHjqIGk0uWjUXyS8v-22" edge="1">
          <mxGeometry relative="1" as="geometry">
            <mxPoint x="1210.5" y="550" as="targetPoint" />
            <Array as="points">
              <mxPoint x="1218" y="480" />
            </Array>
          </mxGeometry>
        </mxCell>
        <mxCell id="E7psHjqIGk0uWjUXyS8v-12" value="&lt;span&gt;(endGVersion - startGVersion)==-1&lt;/span&gt;" style="rounded=1;whiteSpace=wrap;html=1;fontFamily=Comic Sans MS;fontSize=14;fillColor=#fff2cc;strokeColor=#d6b656;" parent="1" vertex="1">
          <mxGeometry x="733" y="440" width="245" height="80" as="geometry" />
        </mxCell>
        <mxCell id="E7psHjqIGk0uWjUXyS8v-38" style="edgeStyle=orthogonalEdgeStyle;rounded=0;orthogonalLoop=1;jettySize=auto;html=1;entryX=0;entryY=0.5;entryDx=0;entryDy=0;fontFamily=Comic Sans MS;fontSize=14;" parent="1" source="E7psHjqIGk0uWjUXyS8v-13" target="E7psHjqIGk0uWjUXyS8v-37" edge="1">
          <mxGeometry relative="1" as="geometry">
            <Array as="points">
              <mxPoint x="563" y="1320" />
            </Array>
          </mxGeometry>
        </mxCell>
        <mxCell id="E7psHjqIGk0uWjUXyS8v-13" value="将下载的 m.json 和本地的 m.json 合并" style="whiteSpace=wrap;html=1;fillColor=#fff2cc;strokeColor=#d6b656;rounded=1;fontFamily=Comic Sans MS;fontSize=14;" parent="1" vertex="1">
          <mxGeometry x="478" y="720" width="170" height="60" as="geometry" />
        </mxCell>
        <mxCell id="E7psHjqIGk0uWjUXyS8v-35" value="" style="edgeStyle=orthogonalEdgeStyle;rounded=0;orthogonalLoop=1;jettySize=auto;html=1;fontFamily=Comic Sans MS;fontSize=14;" parent="1" source="E7psHjqIGk0uWjUXyS8v-15" target="E7psHjqIGk0uWjUXyS8v-34" edge="1">
          <mxGeometry relative="1" as="geometry" />
        </mxCell>
        <mxCell id="E7psHjqIGk0uWjUXyS8v-41" style="edgeStyle=orthogonalEdgeStyle;rounded=0;orthogonalLoop=1;jettySize=auto;html=1;fontFamily=Comic Sans MS;fontSize=14;" parent="1" source="E7psHjqIGk0uWjUXyS8v-15" target="E7psHjqIGk0uWjUXyS8v-37" edge="1">
          <mxGeometry relative="1" as="geometry" />
        </mxCell>
        <mxCell id="E7psHjqIGk0uWjUXyS8v-15" value="判断是否是第一次非原生更新" style="whiteSpace=wrap;html=1;fillColor=#fff2cc;strokeColor=#d6b656;rounded=1;fontFamily=Comic Sans MS;fontSize=14;" parent="1" vertex="1">
          <mxGeometry x="1198" y="1050" width="210" height="60" as="geometry" />
        </mxCell>
        <mxCell id="E7psHjqIGk0uWjUXyS8v-25" style="edgeStyle=orthogonalEdgeStyle;rounded=0;orthogonalLoop=1;jettySize=auto;html=1;fontFamily=Comic Sans MS;fontSize=14;" parent="1" source="E7psHjqIGk0uWjUXyS8v-22" target="E7psHjqIGk0uWjUXyS8v-24" edge="1">
          <mxGeometry relative="1" as="geometry" />
        </mxCell>
        <mxCell id="E7psHjqIGk0uWjUXyS8v-27" style="edgeStyle=orthogonalEdgeStyle;rounded=0;orthogonalLoop=1;jettySize=auto;html=1;entryX=0.5;entryY=0;entryDx=0;entryDy=0;fontFamily=Comic Sans MS;fontSize=14;" parent="1" source="E7psHjqIGk0uWjUXyS8v-22" target="E7psHjqIGk0uWjUXyS8v-26" edge="1">
          <mxGeometry relative="1" as="geometry" />
        </mxCell>
        <mxCell id="E7psHjqIGk0uWjUXyS8v-22" value="&lt;span&gt;(endGVersion - startGVersion) &amp;gt; 1&lt;/span&gt;" style="rounded=1;whiteSpace=wrap;html=1;fontFamily=Comic Sans MS;fontSize=14;fillColor=#fff2cc;strokeColor=#d6b656;" parent="1" vertex="1">
          <mxGeometry x="1088" y="560" width="245" height="80" as="geometry" />
        </mxCell>
        <mxCell id="E7psHjqIGk0uWjUXyS8v-23" value="No，代表是非原生更新" style="text;html=1;align=center;verticalAlign=middle;resizable=0;points=[];autosize=1;strokeColor=none;fillColor=none;fontFamily=Comic Sans MS;fontSize=14;" parent="1" vertex="1">
          <mxGeometry x="1003" y="450" width="160" height="20" as="geometry" />
        </mxCell>
        <mxCell id="E7psHjqIGk0uWjUXyS8v-31" value="" style="edgeStyle=orthogonalEdgeStyle;rounded=0;orthogonalLoop=1;jettySize=auto;html=1;fontFamily=Comic Sans MS;fontSize=14;" parent="1" source="E7psHjqIGk0uWjUXyS8v-24" target="E7psHjqIGk0uWjUXyS8v-30" edge="1">
          <mxGeometry relative="1" as="geometry" />
        </mxCell>
        <mxCell id="E7psHjqIGk0uWjUXyS8v-24" value="比如 m2.json，m3.json。那要分别下载这两个文件" style="whiteSpace=wrap;html=1;fillColor=#fff2cc;strokeColor=#d6b656;rounded=1;fontFamily=Comic Sans MS;fontSize=14;" parent="1" vertex="1">
          <mxGeometry x="798" y="710" width="170" height="60" as="geometry" />
        </mxCell>
        <mxCell id="E7psHjqIGk0uWjUXyS8v-33" style="edgeStyle=orthogonalEdgeStyle;rounded=0;orthogonalLoop=1;jettySize=auto;html=1;entryX=0.5;entryY=0;entryDx=0;entryDy=0;fontFamily=Comic Sans MS;fontSize=14;" parent="1" source="E7psHjqIGk0uWjUXyS8v-26" target="E7psHjqIGk0uWjUXyS8v-15" edge="1">
          <mxGeometry relative="1" as="geometry" />
        </mxCell>
        <mxCell id="E7psHjqIGk0uWjUXyS8v-26" value="比如 m1.json，那此时就要下载 m1.json" style="whiteSpace=wrap;html=1;fillColor=#fff2cc;strokeColor=#d6b656;rounded=1;fontFamily=Comic Sans MS;fontSize=14;" parent="1" vertex="1">
          <mxGeometry x="1458" y="710" width="170" height="50" as="geometry" />
        </mxCell>
        <mxCell id="E7psHjqIGk0uWjUXyS8v-28" value="No，只需要更新一个版本" style="text;html=1;align=center;verticalAlign=middle;resizable=0;points=[];autosize=1;strokeColor=none;fillColor=none;fontSize=14;fontFamily=Comic Sans MS;" parent="1" vertex="1">
          <mxGeometry x="1358" y="575" width="170" height="20" as="geometry" />
        </mxCell>
        <mxCell id="E7psHjqIGk0uWjUXyS8v-29" value="Yes，需要更新多个版本" style="text;html=1;align=center;verticalAlign=middle;resizable=0;points=[];autosize=1;strokeColor=none;fillColor=none;fontSize=14;fontFamily=Comic Sans MS;" parent="1" vertex="1">
          <mxGeometry x="903" y="575" width="160" height="20" as="geometry" />
        </mxCell>
        <mxCell id="E7psHjqIGk0uWjUXyS8v-32" style="edgeStyle=orthogonalEdgeStyle;rounded=0;orthogonalLoop=1;jettySize=auto;html=1;entryX=0.5;entryY=0;entryDx=0;entryDy=0;fontFamily=Comic Sans MS;fontSize=14;" parent="1" source="E7psHjqIGk0uWjUXyS8v-30" target="E7psHjqIGk0uWjUXyS8v-15" edge="1">
          <mxGeometry relative="1" as="geometry" />
        </mxCell>
        <mxCell id="E7psHjqIGk0uWjUXyS8v-39" style="edgeStyle=orthogonalEdgeStyle;rounded=0;orthogonalLoop=1;jettySize=auto;html=1;fontFamily=Comic Sans MS;fontSize=14;" parent="1" source="E7psHjqIGk0uWjUXyS8v-30" target="E7psHjqIGk0uWjUXyS8v-37" edge="1">
          <mxGeometry relative="1" as="geometry" />
        </mxCell>
        <mxCell id="E7psHjqIGk0uWjUXyS8v-30" value="合并 m2.json 和 m3.json。要剔除这两个文件中重复的资源，保留最新的一个即可。比如 m2.json 和 m3.json 都有 a.png。那只要保留 m3.json 中的 a.png 即可" style="whiteSpace=wrap;html=1;fillColor=#fff2cc;strokeColor=#d6b656;rounded=1;fontFamily=Comic Sans MS;fontSize=14;" parent="1" vertex="1">
          <mxGeometry x="668" y="860" width="430" height="60" as="geometry" />
        </mxCell>
        <mxCell id="E7psHjqIGk0uWjUXyS8v-43" style="edgeStyle=orthogonalEdgeStyle;rounded=0;orthogonalLoop=1;jettySize=auto;html=1;entryX=1;entryY=0.5;entryDx=0;entryDy=0;fontFamily=Comic Sans MS;fontSize=14;" parent="1" source="E7psHjqIGk0uWjUXyS8v-34" target="E7psHjqIGk0uWjUXyS8v-37" edge="1">
          <mxGeometry relative="1" as="geometry">
            <Array as="points">
              <mxPoint x="1878" y="1320" />
            </Array>
          </mxGeometry>
        </mxCell>
        <mxCell id="E7psHjqIGk0uWjUXyS8v-34" value="过滤掉原生更新中已经更新的部分。比如原生更新中，已经更新过a.png，此时更新的内容中还有 a.png 且文件的哈希值一样，那应该忽略它" style="whiteSpace=wrap;html=1;fillColor=#fff2cc;strokeColor=#d6b656;rounded=1;fontFamily=Comic Sans MS;fontSize=14;" parent="1" vertex="1">
          <mxGeometry x="1658" y="1050" width="410" height="60" as="geometry" />
        </mxCell>
        <mxCell id="E7psHjqIGk0uWjUXyS8v-36" value="Yes" style="text;html=1;align=center;verticalAlign=middle;resizable=0;points=[];autosize=1;strokeColor=none;fillColor=none;fontSize=14;fontFamily=Comic Sans MS;" parent="1" vertex="1">
          <mxGeometry x="1508" y="1050" width="40" height="20" as="geometry" />
        </mxCell>
        <mxCell id="E7psHjqIGk0uWjUXyS8v-44" style="edgeStyle=orthogonalEdgeStyle;rounded=0;orthogonalLoop=1;jettySize=auto;html=1;fontFamily=Comic Sans MS;fontSize=14;entryX=0.5;entryY=0;entryDx=0;entryDy=0;" parent="1" source="E7psHjqIGk0uWjUXyS8v-37" target="E7psHjqIGk0uWjUXyS8v-45" edge="1">
          <mxGeometry relative="1" as="geometry">
            <mxPoint x="1108" y="1460" as="targetPoint" />
          </mxGeometry>
        </mxCell>
        <mxCell id="E7psHjqIGk0uWjUXyS8v-47" style="edgeStyle=orthogonalEdgeStyle;rounded=0;orthogonalLoop=1;jettySize=auto;html=1;entryX=0;entryY=0.75;entryDx=0;entryDy=0;fontFamily=Comic Sans MS;fontSize=14;" parent="1" source="E7psHjqIGk0uWjUXyS8v-37" target="E7psHjqIGk0uWjUXyS8v-46" edge="1">
          <mxGeometry relative="1" as="geometry">
            <Array as="points">
              <mxPoint x="1108" y="1425" />
            </Array>
          </mxGeometry>
        </mxCell>
        <mxCell id="E7psHjqIGk0uWjUXyS8v-37" value="判断是否是第一次下载" style="whiteSpace=wrap;html=1;fillColor=#fff2cc;strokeColor=#d6b656;rounded=1;fontFamily=Comic Sans MS;fontSize=14;" parent="1" vertex="1">
          <mxGeometry x="1003" y="1290" width="210" height="60" as="geometry" />
        </mxCell>
        <mxCell id="E7psHjqIGk0uWjUXyS8v-42" value="No" style="text;html=1;align=center;verticalAlign=middle;resizable=0;points=[];autosize=1;strokeColor=none;fillColor=none;fontSize=14;fontFamily=Comic Sans MS;" parent="1" vertex="1">
          <mxGeometry x="1208" y="1170" width="30" height="20" as="geometry" />
        </mxCell>
        <mxCell id="E7psHjqIGk0uWjUXyS8v-52" style="edgeStyle=orthogonalEdgeStyle;rounded=0;orthogonalLoop=1;jettySize=auto;html=1;entryX=0.5;entryY=0;entryDx=0;entryDy=0;fontFamily=Comic Sans MS;fontSize=14;" parent="1" source="E7psHjqIGk0uWjUXyS8v-45" target="E7psHjqIGk0uWjUXyS8v-51" edge="1">
          <mxGeometry relative="1" as="geometry" />
        </mxCell>
        <mxCell id="E7psHjqIGk0uWjUXyS8v-55" style="edgeStyle=orthogonalEdgeStyle;rounded=0;orthogonalLoop=1;jettySize=auto;html=1;fontFamily=Comic Sans MS;fontSize=14;" parent="1" source="E7psHjqIGk0uWjUXyS8v-45" target="E7psHjqIGk0uWjUXyS8v-54" edge="1">
          <mxGeometry relative="1" as="geometry" />
        </mxCell>
        <mxCell id="E7psHjqIGk0uWjUXyS8v-45" value="遍历要下载的文件列表" style="whiteSpace=wrap;html=1;fillColor=#fff2cc;strokeColor=#d6b656;rounded=1;fontFamily=Comic Sans MS;fontSize=14;" parent="1" vertex="1">
          <mxGeometry x="1003" y="1510" width="210" height="60" as="geometry" />
        </mxCell>
        <mxCell id="E7psHjqIGk0uWjUXyS8v-49" style="edgeStyle=orthogonalEdgeStyle;rounded=0;orthogonalLoop=1;jettySize=auto;html=1;entryX=1;entryY=0.5;entryDx=0;entryDy=0;fontFamily=Comic Sans MS;fontSize=14;" parent="1" source="E7psHjqIGk0uWjUXyS8v-46" target="E7psHjqIGk0uWjUXyS8v-45" edge="1">
          <mxGeometry relative="1" as="geometry">
            <Array as="points">
              <mxPoint x="1463" y="1540" />
            </Array>
          </mxGeometry>
        </mxCell>
        <mxCell id="E7psHjqIGk0uWjUXyS8v-46" value="把 assets 中的资源拷贝到 preloadpath" style="whiteSpace=wrap;html=1;fillColor=#fff2cc;strokeColor=#d6b656;rounded=1;fontFamily=Comic Sans MS;fontSize=14;" parent="1" vertex="1">
          <mxGeometry x="1358" y="1380" width="210" height="60" as="geometry" />
        </mxCell>
        <mxCell id="E7psHjqIGk0uWjUXyS8v-48" value="Yes" style="text;html=1;align=center;verticalAlign=middle;resizable=0;points=[];autosize=1;strokeColor=none;fillColor=none;fontSize=14;fontFamily=Comic Sans MS;" parent="1" vertex="1">
          <mxGeometry x="1223" y="1400" width="40" height="20" as="geometry" />
        </mxCell>
        <mxCell id="E7psHjqIGk0uWjUXyS8v-51" value="启动定时器，每 500ms 给研发报告下载进度" style="whiteSpace=wrap;html=1;fillColor=#fff2cc;strokeColor=#d6b656;rounded=1;fontFamily=Comic Sans MS;fontSize=14;" parent="1" vertex="1">
          <mxGeometry x="708" y="1630" width="210" height="60" as="geometry" />
        </mxCell>
        <mxCell id="E7psHjqIGk0uWjUXyS8v-57" style="edgeStyle=orthogonalEdgeStyle;rounded=0;orthogonalLoop=1;jettySize=auto;html=1;entryX=0;entryY=0.5;entryDx=0;entryDy=0;fontFamily=Comic Sans MS;fontSize=14;" parent="1" source="E7psHjqIGk0uWjUXyS8v-54" target="E7psHjqIGk0uWjUXyS8v-56" edge="1">
          <mxGeometry relative="1" as="geometry" />
        </mxCell>
        <mxCell id="E7psHjqIGk0uWjUXyS8v-60" value="" style="edgeStyle=orthogonalEdgeStyle;rounded=0;orthogonalLoop=1;jettySize=auto;html=1;fontFamily=Comic Sans MS;fontSize=14;" parent="1" source="E7psHjqIGk0uWjUXyS8v-54" target="E7psHjqIGk0uWjUXyS8v-59" edge="1">
          <mxGeometry relative="1" as="geometry" />
        </mxCell>
        <mxCell id="E7psHjqIGk0uWjUXyS8v-54" value="判断当前下载的文件，是不是压缩文件，即 .zip 文件" style="whiteSpace=wrap;html=1;fillColor=#fff2cc;strokeColor=#d6b656;rounded=1;fontFamily=Comic Sans MS;fontSize=14;" parent="1" vertex="1">
          <mxGeometry x="1003" y="1700" width="210" height="60" as="geometry" />
        </mxCell>
        <mxCell id="E7psHjqIGk0uWjUXyS8v-56" value="把该文件的下载路径，修改为 preloadpath 的根目录下" style="whiteSpace=wrap;html=1;fillColor=#fff2cc;strokeColor=#d6b656;rounded=1;fontFamily=Comic Sans MS;fontSize=14;" parent="1" vertex="1">
          <mxGeometry x="1423" y="1700" width="210" height="60" as="geometry" />
        </mxCell>
        <mxCell id="E7psHjqIGk0uWjUXyS8v-58" value="Yes" style="text;html=1;align=center;verticalAlign=middle;resizable=0;points=[];autosize=1;strokeColor=none;fillColor=none;fontSize=14;fontFamily=Comic Sans MS;" parent="1" vertex="1">
          <mxGeometry x="1288" y="1700" width="40" height="20" as="geometry" />
        </mxCell>
        <mxCell id="E7psHjqIGk0uWjUXyS8v-62" style="edgeStyle=orthogonalEdgeStyle;rounded=0;orthogonalLoop=1;jettySize=auto;html=1;entryX=0.5;entryY=0;entryDx=0;entryDy=0;fontFamily=Comic Sans MS;fontSize=14;" parent="1" source="E7psHjqIGk0uWjUXyS8v-59" target="E7psHjqIGk0uWjUXyS8v-61" edge="1">
          <mxGeometry relative="1" as="geometry" />
        </mxCell>
        <mxCell id="E7psHjqIGk0uWjUXyS8v-59" value="去下载文件" style="whiteSpace=wrap;html=1;fillColor=#fff2cc;strokeColor=#d6b656;rounded=1;fontFamily=Comic Sans MS;fontSize=14;" parent="1" vertex="1">
          <mxGeometry x="1003" y="1840" width="210" height="60" as="geometry" />
        </mxCell>
        <mxCell id="E7psHjqIGk0uWjUXyS8v-64" style="edgeStyle=orthogonalEdgeStyle;rounded=0;orthogonalLoop=1;jettySize=auto;html=1;entryX=0.5;entryY=0;entryDx=0;entryDy=0;fontFamily=Comic Sans MS;fontSize=14;" parent="1" source="E7psHjqIGk0uWjUXyS8v-61" target="E7psHjqIGk0uWjUXyS8v-63" edge="1">
          <mxGeometry relative="1" as="geometry" />
        </mxCell>
        <mxCell id="E7psHjqIGk0uWjUXyS8v-61" value="文件下载完成" style="whiteSpace=wrap;html=1;fillColor=#fff2cc;strokeColor=#d6b656;rounded=1;fontFamily=Comic Sans MS;fontSize=14;" parent="1" vertex="1">
          <mxGeometry x="1003" y="1990" width="210" height="60" as="geometry" />
        </mxCell>
        <mxCell id="E7psHjqIGk0uWjUXyS8v-66" style="edgeStyle=orthogonalEdgeStyle;rounded=0;orthogonalLoop=1;jettySize=auto;html=1;fontFamily=Comic Sans MS;fontSize=14;" parent="1" source="E7psHjqIGk0uWjUXyS8v-63" edge="1">
          <mxGeometry relative="1" as="geometry">
            <mxPoint x="1418" y="2160" as="targetPoint" />
          </mxGeometry>
        </mxCell>
        <mxCell id="E7psHjqIGk0uWjUXyS8v-69" style="edgeStyle=orthogonalEdgeStyle;rounded=0;orthogonalLoop=1;jettySize=auto;html=1;entryX=0.5;entryY=0;entryDx=0;entryDy=0;fontFamily=Comic Sans MS;fontSize=14;" parent="1" source="E7psHjqIGk0uWjUXyS8v-63" target="E7psHjqIGk0uWjUXyS8v-68" edge="1">
          <mxGeometry relative="1" as="geometry" />
        </mxCell>
        <mxCell id="E7psHjqIGk0uWjUXyS8v-63" value="判断下载的文件中是否有压缩文件，即 .zip" style="whiteSpace=wrap;html=1;fillColor=#fff2cc;strokeColor=#d6b656;rounded=1;fontFamily=Comic Sans MS;fontSize=14;" parent="1" vertex="1">
          <mxGeometry x="1003" y="2130" width="210" height="60" as="geometry" />
        </mxCell>
        <mxCell id="E7psHjqIGk0uWjUXyS8v-65" value="解压文件，并删除" style="whiteSpace=wrap;html=1;fillColor=#fff2cc;strokeColor=#d6b656;rounded=1;fontFamily=Comic Sans MS;fontSize=14;" parent="1" vertex="1">
          <mxGeometry x="1423" y="2130" width="210" height="60" as="geometry" />
        </mxCell>
        <mxCell id="E7psHjqIGk0uWjUXyS8v-67" value="Yes" style="text;html=1;align=center;verticalAlign=middle;resizable=0;points=[];autosize=1;strokeColor=none;fillColor=none;fontSize=14;fontFamily=Comic Sans MS;" parent="1" vertex="1">
          <mxGeometry x="1298" y="2130" width="40" height="20" as="geometry" />
        </mxCell>
        <mxCell id="E7psHjqIGk0uWjUXyS8v-68" value="将下载完成的消息，同步给研发" style="whiteSpace=wrap;html=1;fillColor=#fff2cc;strokeColor=#d6b656;rounded=1;fontFamily=Comic Sans MS;fontSize=14;" parent="1" vertex="1">
          <mxGeometry x="1003" y="2290" width="210" height="60" as="geometry" />
        </mxCell>
        <mxCell id="E7psHjqIGk0uWjUXyS8v-72" style="edgeStyle=orthogonalEdgeStyle;rounded=0;orthogonalLoop=1;jettySize=auto;html=1;entryX=0.5;entryY=0;entryDx=0;entryDy=0;fontFamily=Comic Sans MS;fontSize=14;" parent="1" source="E7psHjqIGk0uWjUXyS8v-70" target="E7psHjqIGk0uWjUXyS8v-71" edge="1">
          <mxGeometry relative="1" as="geometry" />
        </mxCell>
        <mxCell id="E7psHjqIGk0uWjUXyS8v-70" value="游戏启动" style="rounded=1;whiteSpace=wrap;html=1;fillColor=#f8cecc;strokeColor=#b85450;fontFamily=Comic Sans MS;fontSize=14;" parent="1" vertex="1">
          <mxGeometry x="-355" y="240" width="120" height="60" as="geometry" />
        </mxCell>
        <mxCell id="E7psHjqIGk0uWjUXyS8v-74" style="edgeStyle=orthogonalEdgeStyle;rounded=0;orthogonalLoop=1;jettySize=auto;html=1;entryX=0;entryY=0.5;entryDx=0;entryDy=0;fontFamily=Comic Sans MS;fontSize=14;" parent="1" source="E7psHjqIGk0uWjUXyS8v-71" target="E7psHjqIGk0uWjUXyS8v-73" edge="1">
          <mxGeometry relative="1" as="geometry" />
        </mxCell>
        <mxCell id="E7psHjqIGk0uWjUXyS8v-76" style="edgeStyle=orthogonalEdgeStyle;rounded=0;orthogonalLoop=1;jettySize=auto;html=1;entryX=0.5;entryY=0;entryDx=0;entryDy=0;fontFamily=Comic Sans MS;fontSize=14;" parent="1" source="E7psHjqIGk0uWjUXyS8v-71" target="E7psHjqIGk0uWjUXyS8v-75" edge="1">
          <mxGeometry relative="1" as="geometry" />
        </mxCell>
        <mxCell id="E7psHjqIGk0uWjUXyS8v-71" value="根据研发后端接口，获取 config.json。判断&lt;span&gt;iosAssetsOpen 的值&lt;/span&gt;" style="rounded=1;whiteSpace=wrap;html=1;fillColor=#f8cecc;strokeColor=#b85450;fontFamily=Comic Sans MS;fontSize=14;" parent="1" vertex="1">
          <mxGeometry x="-440" y="360" width="290" height="60" as="geometry" />
        </mxCell>
        <mxCell id="E7psHjqIGk0uWjUXyS8v-81" style="edgeStyle=orthogonalEdgeStyle;rounded=0;orthogonalLoop=1;jettySize=auto;html=1;entryX=0.5;entryY=0;entryDx=0;entryDy=0;fontFamily=Comic Sans MS;fontSize=14;" parent="1" source="E7psHjqIGk0uWjUXyS8v-73" target="E7psHjqIGk0uWjUXyS8v-79" edge="1">
          <mxGeometry relative="1" as="geometry" />
        </mxCell>
        <mxCell id="E7psHjqIGk0uWjUXyS8v-73" value="表示要启用 preloadpath" style="rounded=1;whiteSpace=wrap;html=1;fillColor=#f8cecc;strokeColor=#b85450;fontFamily=Comic Sans MS;fontSize=14;" parent="1" vertex="1">
          <mxGeometry x="20" y="360" width="240" height="60" as="geometry" />
        </mxCell>
        <mxCell id="E7psHjqIGk0uWjUXyS8v-80" style="edgeStyle=orthogonalEdgeStyle;rounded=0;orthogonalLoop=1;jettySize=auto;html=1;fontFamily=Comic Sans MS;fontSize=14;" parent="1" source="E7psHjqIGk0uWjUXyS8v-75" target="E7psHjqIGk0uWjUXyS8v-79" edge="1">
          <mxGeometry relative="1" as="geometry" />
        </mxCell>
        <mxCell id="E7psHjqIGk0uWjUXyS8v-84" style="edgeStyle=orthogonalEdgeStyle;rounded=0;orthogonalLoop=1;jettySize=auto;html=1;fontFamily=Comic Sans MS;fontSize=14;" parent="1" source="E7psHjqIGk0uWjUXyS8v-75" target="E7psHjqIGk0uWjUXyS8v-83" edge="1">
          <mxGeometry relative="1" as="geometry" />
        </mxCell>
        <mxCell id="E7psHjqIGk0uWjUXyS8v-75" value="不启用 preloadpath，并设置 gameUrl 为&lt;br&gt;http://game/index.html" style="rounded=1;whiteSpace=wrap;html=1;fillColor=#f8cecc;strokeColor=#b85450;fontFamily=Comic Sans MS;fontSize=14;" parent="1" vertex="1">
          <mxGeometry x="-440" y="510" width="290" height="60" as="geometry" />
        </mxCell>
        <mxCell id="E7psHjqIGk0uWjUXyS8v-77" value="True" style="text;html=1;align=center;verticalAlign=middle;resizable=0;points=[];autosize=1;strokeColor=none;fillColor=none;fontSize=14;fontFamily=Comic Sans MS;" parent="1" vertex="1">
          <mxGeometry x="-95" y="360" width="50" height="20" as="geometry" />
        </mxCell>
        <mxCell id="E7psHjqIGk0uWjUXyS8v-78" value="False" style="text;html=1;align=center;verticalAlign=middle;resizable=0;points=[];autosize=1;strokeColor=none;fillColor=none;fontSize=14;fontFamily=Comic Sans MS;" parent="1" vertex="1">
          <mxGeometry x="-290" y="450" width="50" height="20" as="geometry" />
        </mxCell>
        <mxCell id="E7psHjqIGk0uWjUXyS8v-79" value="初始化成功，开始游戏" style="rounded=1;whiteSpace=wrap;html=1;fillColor=#f8cecc;strokeColor=#b85450;fontFamily=Comic Sans MS;fontSize=14;" parent="1" vertex="1">
          <mxGeometry x="-120" y="750" width="290" height="60" as="geometry" />
        </mxCell>
        <mxCell id="E7psHjqIGk0uWjUXyS8v-83" value="删除 preloadpath 下的资源" style="rounded=1;whiteSpace=wrap;html=1;fillColor=#f8cecc;strokeColor=#b85450;fontFamily=Comic Sans MS;fontSize=14;" parent="1" vertex="1">
          <mxGeometry x="-770" y="750" width="290" height="60" as="geometry" />
        </mxCell>
        <mxCell id="E7psHjqIGk0uWjUXyS8v-85" value="可异步删除" style="text;html=1;align=center;verticalAlign=middle;resizable=0;points=[];autosize=1;strokeColor=none;fillColor=none;fontSize=14;fontFamily=Comic Sans MS;" parent="1" vertex="1">
          <mxGeometry x="-590" y="510" width="90" height="20" as="geometry" />
        </mxCell>
      </root>
    </mxGraphModel>
  </diagram>
</mxfile>
